<?xml version="1.0" encoding="utf-8"?>
<!-- Generator: Adobe Illustrator 23.0.2, SVG Export Plug-In . SVG Version: 6.00 Build 0)  -->
<svg version="1.1" id="Layer_2" xmlns="http://www.w3.org/2000/svg" xmlns:xlink="http://www.w3.org/1999/xlink" x="0px" y="0px"
	 viewBox="0 0 500 500" width="38.000000pt" height="38.000000pt" style="enable-background:new 0 0 500 500;" xml:space="preserve">
<style type="text/css">
	.st0{fill:#F0F0F0;}
</style>
<polygon id="Lambda" class="st0" points="313.7,460.4 443.5,419 423.4,356 363.5,375.1 231.6,39.6 124.9,39.6 124.9,105.7
	177.8,105.7 206.1,177.3 30.6,439.2 118.5,438.9 238.6,259.7 "/>
<g id="Sharp">
	<polygon class="st0" points="416.4,264.4 389.7,264.5 423.5,74.6 450.2,74.6 	"/>
	<polygon class="st0" points="360.9,264.4 334.2,264.5 368,74.6 394.8,74.6 	"/>
	<polygon class="st0" points="465.9,154.5 469.4,125.8 328.3,125.9 324.9,154.5 	"/>
	<polygon class="st0" points="456.5,209.7 460,181.1 318.9,181.2 315.5,209.8 	"/>
</g>
</svg>
